<svg id="Layer_1" data-name="Layer 1" xmlns="http://www.w3.org/2000/svg" viewBox="0 0 618 497"><defs><style>.cls-1{fill:#ff5b64;}</style></defs><g id="Right-Tick-Icon"><path class="cls-1" d="M1183,384v-.5a67.58,67.58,0,0,0-67.5-67.5h-312A67.58,67.58,0,0,0,736,383.5v312A67.58,67.58,0,0,0,803.5,763h312a67.58,67.58,0,0,0,67.5-67.5V523h25V695.5a92.61,92.61,0,0,1-92.5,92.5h-312A92.61,92.61,0,0,1,711,695.5v-312A92.61,92.61,0,0,1,803.5,291h312a92.61,92.61,0,0,1,92.5,92.5v.5Z" transform="translate(-711 -291)"/><polygon class="cls-1" points="82 229.95 233.43 405.19 618 49 233.43 323.28 82 229.95"/></g></svg>