<svg id="Layer_1" data-name="Layer 1" xmlns="http://www.w3.org/2000/svg" viewBox="0 0 333.34 79.02"><defs><style>.cls-1{fill:#ff5b64;}</style></defs><path class="cls-1" d="M891.55,500.74v21.88h2.32V500.74Z" transform="translate(-793.33 -500.49)"/><path class="cls-1" d="M917,500.74v17.75l-14.08-17.75H901v21.88h2.3V504.87l14.07,17.75h1.9V500.74Z" transform="translate(-793.33 -500.49)"/><path class="cls-1" d="M922.94,500.74v2h7.69v19.87h2.3V502.75h7.69v-2Z" transform="translate(-793.33 -500.49)"/><path class="cls-1" d="M946.63,520.61v-8.13h11.3v-2h-11.3v-7.78H959.3v-2h-15v21.88h15.47v-2Z" transform="translate(-793.33 -500.49)"/><path class="cls-1" d="M977.33,515.11a6.78,6.78,0,0,0,5-6.86,6.83,6.83,0,0,0-2.37-5.5,9.93,9.93,0,0,0-6.56-2h-8.2v21.88h2.32v-6.94h5.88c.6,0,1.19,0,1.74-.09l5,7h2.54Zm-4-1.4h-5.81v-11h5.81a7.74,7.74,0,0,1,5,1.4,5,5,0,0,1,1.71,4.1,4.92,4.92,0,0,1-1.71,4A7.52,7.52,0,0,1,973.33,513.71Z" transform="translate(-793.33 -500.49)"/><path class="cls-1" d="M1003.79,500.74v17.75l-14.1-17.75h-1.9v21.88h2.32V504.87l14,17.75h1.92V500.74Z" transform="translate(-793.33 -500.49)"/><path class="cls-1" d="M912.35,528.63,903,544.84l-9.5-16.21h-1.9V550.5h2.23V533.1l8.58,14.63h1.1L912,533V550.5h2.23V528.63Z" transform="translate(-793.33 -500.49)"/><path class="cls-1" d="M930.16,528.63h-2.29l-10,21.87h2.41l2.61-5.84h12.2l2.61,5.84h2.44Zm-6.39,14.15L929,531l5.24,11.74Z" transform="translate(-793.33 -500.49)"/><path class="cls-1" d="M959.78,528.63v17.75l-14.1-17.75h-1.9V550.5h2.32V532.75l14,17.75h1.92V528.63Z" transform="translate(-793.33 -500.49)"/><path class="cls-1" d="M978,528.63h-2.28l-10,21.87h2.41l2.61-5.84h12.2l2.61,5.84H988Zm-6.39,14.15L976.8,531,982,542.78Z" transform="translate(-793.33 -500.49)"/><path class="cls-1" d="M1006.66,546.94a9.56,9.56,0,0,1-5.72,1.68,9.76,9.76,0,0,1-4.78-1.18,9.23,9.23,0,0,1-3.35-12.51,8.74,8.74,0,0,1,3.36-3.25,9.76,9.76,0,0,1,4.81-1.17,9,9,0,0,1,6.59,2.55l1.44-1.46a9.2,9.2,0,0,0-3.54-2.35,12.79,12.79,0,0,0-4.59-.81,12,12,0,0,0-5.93,1.45,10.61,10.61,0,0,0-4.13,4,11.63,11.63,0,0,0,0,11.39,10.61,10.61,0,0,0,4.13,4,11.94,11.94,0,0,0,5.9,1.45,13.44,13.44,0,0,0,4.4-.72,10.51,10.51,0,0,0,3.63-2.06v-8.35h-2.22Z" transform="translate(-793.33 -500.49)"/><path class="cls-1" d="M1017.72,548.49v-8.1H1029v-2h-11.31v-7.78h12.68v-2h-15V550.5h15.47v-2Z" transform="translate(-793.33 -500.49)"/><path class="cls-1" d="M1057.11,528.63l-9.4,16.21-9.5-16.21h-1.9V550.5h2.21V533.1l8.59,14.63h1.09l8.6-14.72V550.5H1059V528.63Z" transform="translate(-793.33 -500.49)"/><path class="cls-1" d="M1068.45,548.49v-8.1h11.31v-2h-11.31v-7.78h12.68v-2h-15V550.5h15.47v-2Z" transform="translate(-793.33 -500.49)"/><path class="cls-1" d="M1103,528.63v17.75l-14.08-17.75H1087V550.5h2.31V532.75l14.07,17.75h1.9V528.63Z" transform="translate(-793.33 -500.49)"/><path class="cls-1" d="M1109,528.63v2h7.67V550.5H1119V530.63h7.69v-2Z" transform="translate(-793.33 -500.49)"/><path class="cls-1" d="M904.7,569.44a6.17,6.17,0,0,0-2.5-1.75,34.59,34.59,0,0,0-3.89-1.17c-1.37-.33-2.45-.64-3.23-.91a5.46,5.46,0,0,1-2-1.23,2.87,2.87,0,0,1-.79-2.12,3.44,3.44,0,0,1,1.45-2.85,7,7,0,0,1,4.32-1.11,10.68,10.68,0,0,1,3.07.46,10.91,10.91,0,0,1,2.92,1.35l.79-1.85a10.46,10.46,0,0,0-3.11-1.4,13,13,0,0,0-3.67-.53,10.82,10.82,0,0,0-4.49.82,5.92,5.92,0,0,0-2.68,2.17,5.37,5.37,0,0,0-.88,3,4.69,4.69,0,0,0,1,3.21,6.46,6.46,0,0,0,2.52,1.77,32.44,32.44,0,0,0,3.93,1.21c1.37.33,2.44.64,3.21.91a5,5,0,0,1,2,1.21,2.78,2.78,0,0,1,.8,2.08,3.34,3.34,0,0,1-1.48,2.81,7.48,7.48,0,0,1-4.4,1.06,11.56,11.56,0,0,1-4.06-.73,8.46,8.46,0,0,1-3.15-1.92l-.9,1.79a8.67,8.67,0,0,0,3.45,2.06,13.93,13.93,0,0,0,4.66.77,11.46,11.46,0,0,0,4.53-.78,6.07,6.07,0,0,0,2.74-2.16,5.36,5.36,0,0,0,.89-3A4.65,4.65,0,0,0,904.7,569.44Z" transform="translate(-793.33 -500.49)"/><path class="cls-1" d="M924.22,556.53l-7.48,12.27-7.51-12.27h-2.47l8.75,14.3v7.56h2.28v-7.56l8.75-14.3Z" transform="translate(-793.33 -500.49)"/><path class="cls-1" d="M942.81,569.44a6.37,6.37,0,0,0-2.52-1.75,31.63,31.63,0,0,0-3.89-1.17c-1.35-.33-2.43-.64-3.23-.91a5.46,5.46,0,0,1-2-1.23,2.87,2.87,0,0,1-.8-2.12,3.45,3.45,0,0,1,1.46-2.85,7.07,7.07,0,0,1,4.33-1.11,10.76,10.76,0,0,1,3.05.46,11.18,11.18,0,0,1,2.94,1.35l.78-1.85a10.75,10.75,0,0,0-3.1-1.4,13.13,13.13,0,0,0-3.67-.53,11,11,0,0,0-4.51.82,6,6,0,0,0-2.69,2.17,5.45,5.45,0,0,0-.88,3,4.61,4.61,0,0,0,1.06,3.21,6.5,6.5,0,0,0,2.51,1.77,33.87,33.87,0,0,0,3.94,1.21c1.37.33,2.45.64,3.21.91a5.15,5.15,0,0,1,2,1.21,2.78,2.78,0,0,1,.8,2.08,3.34,3.34,0,0,1-1.48,2.81,7.48,7.48,0,0,1-4.4,1.06,11.46,11.46,0,0,1-4.05-.73,8.43,8.43,0,0,1-3.16-1.92l-.92,1.79A9.09,9.09,0,0,0,931,577.8a14.08,14.08,0,0,0,4.67.77,11.43,11.43,0,0,0,4.53-.78,6.13,6.13,0,0,0,2.74-2.16,5.51,5.51,0,0,0,.88-3A4.6,4.6,0,0,0,942.81,569.44Z" transform="translate(-793.33 -500.49)"/><path class="cls-1" d="M945.13,556.53v2h7.67v19.87h2.32V558.52h7.69v-2Z" transform="translate(-793.33 -500.49)"/><path class="cls-1" d="M968.8,576.4v-8.13h11.3v-2H968.8v-7.78h12.69v-2h-15v21.86H982v-2Z" transform="translate(-793.33 -500.49)"/><path class="cls-1" d="M1008.19,556.53l-9.41,16.2-9.49-16.2h-1.9v21.86h2.21V561l8.6,14.62h1.1l8.58-14.72v17.5h2.21V556.53Z" transform="translate(-793.33 -500.49)"/><path class="cls-1" d="M881.91,579.51H864.84l-.11-47.16L844.13,567l-.42.72,0,0a7.5,7.5,0,0,1-12.42,0c-.13-.2-.26-.4-.37-.61l-20.51-33.71v46.15H793.33V527.35h30.95l13.51,22.4,26.11-44,.59-1a9.62,9.62,0,0,1,17.22,2.7v5.33Z" transform="translate(-793.33 -500.49)"/><path class="cls-1" d="M794,510h0a8.78,8.78,0,0,0,8.53,9h.94a8.78,8.78,0,0,0,8.53-9h0a8.78,8.78,0,0,0-8.53-9h-.94A8.78,8.78,0,0,0,794,510Z" transform="translate(-793.33 -500.49)"/></svg>