<svg id="Layer_1" data-name="Layer 1" xmlns="http://www.w3.org/2000/svg" viewBox="0 0 79.46 86"><defs><style>.cls-1{fill:#ff5b64;}</style></defs><g id="User_Icon" data-name="User Icon"><path class="cls-1" d="M953.36,538.6a20.85,20.85,0,1,1,21-20.91A21,21,0,0,1,953.36,538.6Zm.13-35.25A14.33,14.33,0,0,0,939,518a14.55,14.55,0,0,0,29.1-.07A14.42,14.42,0,0,0,953.49,503.35Z" transform="translate(-919.78 -496.91)"/><path class="cls-1" d="M954.5,580.45c1.65-5.15,4.92-14.84,6.55-16.79l21.84-21.84a9.67,9.67,0,0,1,13.64-.2h0a9.68,9.68,0,0,1-.2,13.63L974.48,577.1c-1.43,1.44-12.18,4.33-17.72,5.75A1.88,1.88,0,0,1,954.5,580.45Z" transform="translate(-919.78 -496.91)"/><path class="cls-1" d="M926.29,558.85c.2,7.9,14.24,15.77,25.24,14.77l-1.15,3.43a3.55,3.55,0,0,1-3.64,2.45c-13.18-1.06-26.62-9.47-26.94-20.38h0c0-.12,0-.23,0-.35v-.15c.2-6.63,4.4-11.75,9.74-11.75l42-.25-5.84,5.63a4,4,0,0,1-2.78,1.12H929.53C928,553.37,926.38,555.7,926.29,558.85Z" transform="translate(-919.78 -496.91)"/></g></svg>